<svg width="77" height="77" xmlns="http://www.w3.org/2000/svg" xmlns:xlink="http://www.w3.org/1999/xlink" xml:space="preserve" overflow="hidden"><defs><clipPath id="clip0"><rect x="873" y="436" width="77" height="77"/></clipPath></defs><g clip-path="url(#clip0)" transform="translate(-873 -436)"><path d="M950 474.5C950 495.763 932.763 513 911.5 513 890.237 513 873 495.763 873 474.5 873 453.237 890.237 436 911.5 436 932.763 436 950 453.237 950 474.5Z" fill="#21A366"/><path d="M885.802 462.475C884.562 462.475 883.475 462.614 882.515 462.899 881.83 463.104 881.208 463.383 880.642 463.742 880.416 463.885 880.198 464.041 879.989 464.21 879.779 464.379 879.578 464.56 879.384 464.755 879.228 464.911 879.083 465.077 878.947 465.249L878.946 465.25C878.944 465.253 878.942 465.256 878.939 465.258 878.875 465.339 878.813 465.422 878.753 465.506 878.741 465.523 878.729 465.541 878.717 465.558 878.606 465.717 878.501 465.882 878.404 466.05 878.386 466.083 878.369 466.116 878.351 466.149 878.318 466.208 878.286 466.267 878.255 466.327 878.236 466.365 878.219 466.402 878.2 466.44 878.169 466.505 878.137 466.571 878.108 466.637 878.099 466.656 878.091 466.675 878.082 466.695 878.05 466.769 878.018 466.844 877.989 466.919 877.969 466.968 877.951 467.018 877.933 467.067 877.915 467.116 877.897 467.165 877.88 467.214 877.867 467.253 877.854 467.292 877.841 467.332 877.818 467.403 877.796 467.474 877.775 467.547 877.766 467.579 877.757 467.612 877.748 467.644 877.732 467.704 877.716 467.764 877.701 467.824 877.687 467.881 877.674 467.939 877.661 467.997 877.65 468.045 877.641 468.092 877.631 468.141 877.621 468.191 877.611 468.242 877.602 468.293 877.592 468.348 877.582 468.403 877.574 468.457 877.566 468.512 877.559 468.566 877.551 468.621 877.545 468.669 877.54 468.718 877.534 468.767 877.528 468.825 877.522 468.883 877.517 468.941 877.513 468.992 877.51 469.044 877.506 469.096 877.503 469.145 877.5 469.195 877.498 469.245 877.496 469.295 877.493 469.344 877.492 469.394 877.491 469.46 877.49 469.525 877.49 469.591 877.49 469.63 877.492 469.669 877.492 469.708 877.494 469.765 877.495 469.822 877.498 469.879 877.5 469.939 877.504 469.998 877.508 470.058 877.512 470.102 877.515 470.146 877.519 470.19 877.524 470.248 877.531 470.306 877.537 470.363 877.543 470.409 877.547 470.456 877.554 470.502 877.561 470.558 877.57 470.613 877.579 470.668 877.588 470.721 877.596 470.773 877.606 470.825 877.614 470.865 877.623 470.905 877.631 470.945 877.643 471.005 877.656 471.065 877.67 471.124 877.681 471.171 877.693 471.217 877.705 471.263 877.718 471.314 877.731 471.364 877.745 471.414 877.764 471.48 877.785 471.545 877.806 471.61 877.815 471.64 877.824 471.669 877.834 471.698 877.855 471.761 877.878 471.823 877.902 471.884 877.915 471.92 877.928 471.956 877.942 471.992 877.975 472.072 878.009 472.151 878.044 472.23 878.049 472.24 878.053 472.249 878.057 472.259 878.089 472.328 878.124 472.396 878.158 472.463 878.171 472.488 878.183 472.515 878.196 472.539 878.219 472.582 878.243 472.623 878.267 472.665 878.292 472.709 878.316 472.754 878.342 472.797 878.394 472.883 878.45 472.967 878.506 473.05 878.507 473.05 878.507 473.051 878.508 473.052 878.562 473.132 878.62 473.21 878.679 473.286 878.781 473.417 878.891 473.54 879.006 473.66 879.026 473.681 879.045 473.704 879.066 473.724 879.074 473.732 879.082 473.74 879.09 473.748L887.383 482.041C886.797 482.105 886.167 482.099 885.548 482.014 885.41 481.995 885.273 481.973 885.138 481.946 884.594 481.841 884.072 481.675 883.613 481.448 883.241 481.264 882.756 480.952 882.325 480.63 882.153 480.502 881.989 480.371 881.845 480.247 881.811 480.217 881.782 480.19 881.751 480.161 881.719 480.133 881.686 480.104 881.657 480.076 881.654 480.073 881.65 480.07 881.646 480.067L881.646 480.065C881.404 479.834 881.17 479.623 880.99 479.469 880.9 479.393 880.824 479.331 880.767 479.288L880.766 479.288C880.708 479.245 880.669 479.221 880.654 479.221 880.637 479.221 880.605 479.231 880.564 479.248 880.438 479.301 880.211 479.429 879.927 479.6 878.837 480.257 876.921 481.559 876.763 481.789L876.763 481.79C876.757 481.799 876.752 481.807 876.752 481.812 876.752 481.821 876.755 481.832 876.757 481.842 876.758 481.85 876.758 481.857 876.76 481.866 876.763 481.879 876.767 481.894 876.772 481.909 876.773 481.914 876.776 481.919 876.778 481.925 876.786 481.948 876.8 481.976 876.812 482.002 876.832 482.044 876.856 482.089 876.885 482.138 876.896 482.155 876.905 482.171 876.917 482.189 876.961 482.258 877.011 482.331 877.07 482.41 877.081 482.425 877.095 482.441 877.107 482.457 877.159 482.525 877.215 482.595 877.276 482.668 877.295 482.691 877.314 482.713 877.333 482.736 877.402 482.817 877.475 482.899 877.553 482.983 877.561 482.992 877.569 483.001 877.577 483.01 877.662 483.101 877.749 483.193 877.841 483.285L907.302 512.743C908.696 512.905 910.097 512.991 911.5 513 932.147 512.986 949.107 496.687 949.942 476.058L936.695 462.81 936.694 462.809 934.061 462.811 931.427 462.812 930.288 465.604 927.493 462.809 924.311 462.809C922.56 462.809 921.129 462.847 921.129 462.892 921.129 462.922 921.356 463.401 921.645 463.995L920.459 462.81 920.459 462.809 914.599 462.809 908.736 462.809 908.736 464.82 908.736 466.828 913.438 471.53 913.32 471.588 904.542 462.809 903.226 462.81 901.908 462.81 899.275 462.811 896.909 468.622 893.95 465.663C893.93 465.643 893.912 465.625 893.891 465.604 893.372 465.088 892.811 464.633 892.211 464.243L892.21 464.242C892.06 464.145 891.908 464.051 891.754 463.962L891.753 463.962C890.358 463.156 888.767 462.673 887.003 462.525 886.807 462.508 886.61 462.496 886.409 462.488 886.209 462.48 886.008 462.475 885.804 462.475L885.802 462.475Z" fill="#000000" fill-opacity="0.5"/><path d="M883.312 486.27C881.79 485.889 879.609 484.816 878.532 483.918 877.62 483.159 876.752 482.13 876.752 481.813 876.752 481.628 880.374 479.221 880.653 479.221 880.714 479.221 881.16 479.602 881.645 480.066 882.13 480.532 883.017 481.153 883.612 481.448 885.448 482.356 888.293 482.285 889.459 481.304 891.196 479.844 889.964 477.932 886.652 476.947 881.413 475.391 880.584 475.051 879.312 473.954 876.85 471.83 876.887 467.269 879.383 464.755 880.934 463.197 882.966 462.476 885.801 462.476 889.072 462.476 891.813 463.537 893.89 465.604 894.503 466.213 895.003 466.758 895.001 466.813 894.997 466.919 891.261 469.342 891.1 469.342 891.047 469.342 890.516 468.973 889.919 468.521 888.466 467.422 887.289 466.997 885.697 466.997 883.71 466.997 882.445 467.845 882.445 469.173 882.445 470.521 883.449 471.166 887.385 472.349 890.53 473.294 892.22 474.037 893.273 474.941 893.656 475.269 893.996 475.536 894.032 475.536 894.065 475.536 895.258 472.673 896.683 469.175L899.275 462.812 901.908 462.812 904.542 462.81 904.396 463.187C904.318 463.395 903.294 465.862 902.12 468.672 900.949 471.48 899.627 474.664 899.181 475.747L898.371 477.714 901.944 477.714 905.516 477.714 903.763 473.585 902.008 469.456 903.811 467.766C904.803 466.836 905.679 466.076 905.758 466.076 905.892 466.076 914.094 485.803 914.094 486.123 914.094 486.2 912.917 486.243 911.481 486.217L908.867 486.17 908.065 484.162 907.265 482.151 901.944 482.151 896.62 482.151 895.791 484.191 894.959 486.229 891.925 486.325C890.257 486.376 887.912 486.455 886.715 486.498 884.964 486.563 884.298 486.516 883.312 486.27ZM915.602 476.543 915.602 466.828 912.169 466.828 908.735 466.828 908.735 464.82 908.735 462.81 914.598 462.81 920.458 462.81 920.458 474.532 920.458 486.255 918.029 486.255 915.602 486.255ZM921.963 486.129C921.963 486.06 924.091 480.785 926.695 474.408L931.426 462.814 934.059 462.812 936.692 462.81 936.549 463.187C936.47 463.395 935.446 465.862 934.273 468.672 933.102 471.48 931.777 474.664 931.333 475.747L930.524 477.714 934.096 477.714 937.669 477.714 935.914 473.585 934.161 469.456 935.963 467.766C936.956 466.836 937.83 466.076 937.911 466.076 938.042 466.076 946.247 485.805 946.247 486.123 946.247 486.2 945.07 486.243 943.634 486.217L941.02 486.172 940.218 484.162 939.416 482.151 934.094 482.151 928.773 482.151 927.937 484.203 927.1 486.255 924.532 486.255C923.121 486.255 921.965 486.198 921.963 486.129ZM922.087 464.903C921.56 463.841 921.128 462.937 921.128 462.892 921.128 462.847 922.559 462.81 924.31 462.81L927.491 462.81 927.491 464.82 927.491 466.828 925.269 466.828 923.046 466.828Z" fill="#FFFFFF"/></g></svg>